<svg id="visual" viewBox="0 0 900 600" width="900" height="600" xmlns="http://www.w3.org/2000/svg" xmlns:xlink="http://www.w3.org/1999/xlink" version="1.1"><rect x="0" y="0" width="900" height="600" fill="#001220"></rect><defs><linearGradient id="grad1_0" x1="33.3%" y1="100%" x2="100%" y2="0%"><stop offset="20%" stop-color="#fbae3c" stop-opacity="1"></stop><stop offset="80%" stop-color="#fbae3c" stop-opacity="1"></stop></linearGradient></defs><defs><linearGradient id="grad1_1" x1="33.3%" y1="100%" x2="100%" y2="0%"><stop offset="20%" stop-color="#fbae3c" stop-opacity="1"></stop><stop offset="80%" stop-color="#eb7458" stop-opacity="1"></stop></linearGradient></defs><defs><linearGradient id="grad1_2" x1="33.3%" y1="100%" x2="100%" y2="0%"><stop offset="20%" stop-color="#b84e6c" stop-opacity="1"></stop><stop offset="80%" stop-color="#eb7458" stop-opacity="1"></stop></linearGradient></defs><defs><linearGradient id="grad1_3" x1="33.3%" y1="100%" x2="100%" y2="0%"><stop offset="20%" stop-color="#b84e6c" stop-opacity="1"></stop><stop offset="80%" stop-color="#713c69" stop-opacity="1"></stop></linearGradient></defs><defs><linearGradient id="grad1_4" x1="33.3%" y1="100%" x2="100%" y2="0%"><stop offset="20%" stop-color="#2d2b4c" stop-opacity="1"></stop><stop offset="80%" stop-color="#713c69" stop-opacity="1"></stop></linearGradient></defs><defs><linearGradient id="grad1_5" x1="33.3%" y1="100%" x2="100%" y2="0%"><stop offset="20%" stop-color="#2d2b4c" stop-opacity="1"></stop><stop offset="80%" stop-color="#001220" stop-opacity="1"></stop></linearGradient></defs><defs><linearGradient id="grad2_0" x1="0%" y1="100%" x2="66.7%" y2="0%"><stop offset="20%" stop-color="#fbae3c" stop-opacity="1"></stop><stop offset="80%" stop-color="#fbae3c" stop-opacity="1"></stop></linearGradient></defs><defs><linearGradient id="grad2_1" x1="0%" y1="100%" x2="66.7%" y2="0%"><stop offset="20%" stop-color="#eb7458" stop-opacity="1"></stop><stop offset="80%" stop-color="#fbae3c" stop-opacity="1"></stop></linearGradient></defs><defs><linearGradient id="grad2_2" x1="0%" y1="100%" x2="66.7%" y2="0%"><stop offset="20%" stop-color="#eb7458" stop-opacity="1"></stop><stop offset="80%" stop-color="#b84e6c" stop-opacity="1"></stop></linearGradient></defs><defs><linearGradient id="grad2_3" x1="0%" y1="100%" x2="66.7%" y2="0%"><stop offset="20%" stop-color="#713c69" stop-opacity="1"></stop><stop offset="80%" stop-color="#b84e6c" stop-opacity="1"></stop></linearGradient></defs><defs><linearGradient id="grad2_4" x1="0%" y1="100%" x2="66.7%" y2="0%"><stop offset="20%" stop-color="#713c69" stop-opacity="1"></stop><stop offset="80%" stop-color="#2d2b4c" stop-opacity="1"></stop></linearGradient></defs><defs><linearGradient id="grad2_5" x1="0%" y1="100%" x2="66.7%" y2="0%"><stop offset="20%" stop-color="#001220" stop-opacity="1"></stop><stop offset="80%" stop-color="#2d2b4c" stop-opacity="1"></stop></linearGradient></defs><g transform="translate(900, 600)"><path d="M-432.7 0C-421.3 -55.8 -409.9 -111.6 -387.1 -160.3C-364.3 -209.1 -330.1 -250.9 -292.7 -292.7C-255.4 -334.6 -214.9 -376.4 -165.6 -399.7C-116.3 -423.1 -58.1 -427.9 0 -432.7L0 0Z" fill="#131f37"></path><path d="M-360.6 0C-351.1 -46.5 -341.6 -93 -322.6 -133.6C-303.6 -174.3 -275.1 -209.1 -244 -244C-212.8 -278.8 -179.1 -313.7 -138 -333.1C-96.9 -352.5 -48.4 -356.6 0 -360.6L0 0Z" fill="#4d345e"></path><path d="M-288.4 0C-280.9 -37.2 -273.3 -74.4 -258.1 -106.9C-242.9 -139.4 -220.1 -167.3 -195.2 -195.2C-170.3 -223 -143.3 -250.9 -110.4 -266.5C-77.5 -282 -38.8 -285.2 0 -288.4L0 0Z" fill="#96446e"></path><path d="M-216.3 0C-210.6 -27.9 -205 -55.8 -193.6 -80.2C-182.2 -104.6 -165 -125.5 -146.4 -146.4C-127.7 -167.3 -107.4 -188.2 -82.8 -199.9C-58.1 -211.5 -29.1 -213.9 0 -216.3L0 0Z" fill="#d55e64"></path><path d="M-144.2 0C-140.4 -18.6 -136.6 -37.2 -129 -53.4C-121.4 -69.7 -110 -83.6 -97.6 -97.6C-85.1 -111.5 -71.6 -125.5 -55.2 -133.2C-38.8 -141 -19.4 -142.6 0 -144.2L0 0Z" fill="#f88f4a"></path><path d="M-72.1 0C-70.2 -9.3 -68.3 -18.6 -64.5 -26.7C-60.7 -34.9 -55 -41.8 -48.8 -48.8C-42.6 -55.8 -35.8 -62.7 -27.6 -66.6C-19.4 -70.5 -9.7 -71.3 0 -72.1L0 0Z" fill="#fbae3c"></path></g><g transform="translate(0, 0)"><path d="M432.7 0C429 59.3 425.4 118.6 399.7 165.6C374 212.6 326.3 247.4 284.3 284.3C242.2 321.2 206 360.2 159.6 385.3C113.2 410.3 56.6 421.5 0 432.7L0 0Z" fill="#131f37"></path><path d="M360.6 0C357.5 49.4 354.5 98.8 333.1 138C311.7 177.2 271.9 206.1 236.9 236.9C201.9 267.6 171.7 300.1 133 321C94.3 342 47.2 351.3 0 360.6L0 0Z" fill="#4d345e"></path><path d="M288.4 0C286 39.5 283.6 79 266.5 110.4C249.4 141.7 217.5 164.9 189.5 189.5C161.5 214.1 137.3 240.1 106.4 256.8C75.4 273.6 37.7 281 0 288.4L0 0Z" fill="#96446e"></path><path d="M216.3 0C214.5 29.6 212.7 59.3 199.9 82.8C187 106.3 163.1 123.7 142.1 142.1C121.1 160.6 103 180.1 79.8 192.6C56.6 205.2 28.3 210.8 0 216.3L0 0Z" fill="#d55e64"></path><path d="M144.2 0C143 19.8 141.8 39.5 133.2 55.2C124.7 70.9 108.8 82.5 94.8 94.8C80.7 107.1 68.7 120.1 53.2 128.4C37.7 136.8 18.9 140.5 0 144.2L0 0Z" fill="#f88f4a"></path><path d="M72.1 0C71.5 9.9 70.9 19.8 66.6 27.6C62.3 35.4 54.4 41.2 47.4 47.4C40.4 53.5 34.3 60 26.6 64.2C18.9 68.4 9.4 70.3 0 72.1L0 0Z" fill="#fbae3c"></path></g></svg>