<svg id="visual" viewBox="0 0 960 540" width="960" height="540" xmlns="http://www.w3.org/2000/svg" xmlns:xlink="http://www.w3.org/1999/xlink" version="1.1"><rect x="0" y="0" width="960" height="540" fill="#001220"></rect><defs><linearGradient id="grad1_0" x1="43.8%" y1="100%" x2="100%" y2="0%"><stop offset="14.444444444444446%" stop-color="#fbae3c" stop-opacity="1"></stop><stop offset="85.55555555555554%" stop-color="#fbae3c" stop-opacity="1"></stop></linearGradient></defs><defs><linearGradient id="grad1_1" x1="43.8%" y1="100%" x2="100%" y2="0%"><stop offset="14.444444444444446%" stop-color="#fbae3c" stop-opacity="1"></stop><stop offset="85.55555555555554%" stop-color="#eb7458" stop-opacity="1"></stop></linearGradient></defs><defs><linearGradient id="grad1_2" x1="43.8%" y1="100%" x2="100%" y2="0%"><stop offset="14.444444444444446%" stop-color="#b84e6c" stop-opacity="1"></stop><stop offset="85.55555555555554%" stop-color="#eb7458" stop-opacity="1"></stop></linearGradient></defs><defs><linearGradient id="grad1_3" x1="43.8%" y1="100%" x2="100%" y2="0%"><stop offset="14.444444444444446%" stop-color="#b84e6c" stop-opacity="1"></stop><stop offset="85.55555555555554%" stop-color="#713c69" stop-opacity="1"></stop></linearGradient></defs><defs><linearGradient id="grad1_4" x1="43.8%" y1="100%" x2="100%" y2="0%"><stop offset="14.444444444444446%" stop-color="#2d2b4c" stop-opacity="1"></stop><stop offset="85.55555555555554%" stop-color="#713c69" stop-opacity="1"></stop></linearGradient></defs><defs><linearGradient id="grad1_5" x1="43.8%" y1="100%" x2="100%" y2="0%"><stop offset="14.444444444444446%" stop-color="#2d2b4c" stop-opacity="1"></stop><stop offset="85.55555555555554%" stop-color="#001220" stop-opacity="1"></stop></linearGradient></defs><defs><linearGradient id="grad2_0" x1="0%" y1="100%" x2="56.3%" y2="0%"><stop offset="14.444444444444446%" stop-color="#fbae3c" stop-opacity="1"></stop><stop offset="85.55555555555554%" stop-color="#fbae3c" stop-opacity="1"></stop></linearGradient></defs><defs><linearGradient id="grad2_1" x1="0%" y1="100%" x2="56.3%" y2="0%"><stop offset="14.444444444444446%" stop-color="#eb7458" stop-opacity="1"></stop><stop offset="85.55555555555554%" stop-color="#fbae3c" stop-opacity="1"></stop></linearGradient></defs><defs><linearGradient id="grad2_2" x1="0%" y1="100%" x2="56.3%" y2="0%"><stop offset="14.444444444444446%" stop-color="#eb7458" stop-opacity="1"></stop><stop offset="85.55555555555554%" stop-color="#b84e6c" stop-opacity="1"></stop></linearGradient></defs><defs><linearGradient id="grad2_3" x1="0%" y1="100%" x2="56.3%" y2="0%"><stop offset="14.444444444444446%" stop-color="#713c69" stop-opacity="1"></stop><stop offset="85.55555555555554%" stop-color="#b84e6c" stop-opacity="1"></stop></linearGradient></defs><defs><linearGradient id="grad2_4" x1="0%" y1="100%" x2="56.3%" y2="0%"><stop offset="14.444444444444446%" stop-color="#713c69" stop-opacity="1"></stop><stop offset="85.55555555555554%" stop-color="#2d2b4c" stop-opacity="1"></stop></linearGradient></defs><defs><linearGradient id="grad2_5" x1="0%" y1="100%" x2="56.3%" y2="0%"><stop offset="14.444444444444446%" stop-color="#001220" stop-opacity="1"></stop><stop offset="85.55555555555554%" stop-color="#2d2b4c" stop-opacity="1"></stop></linearGradient></defs><g transform="translate(960, 540)"><path d="M-378 0C-373.5 -50.4 -369.1 -100.7 -349.2 -144.7C-329.4 -188.6 -294.1 -226.1 -256.7 -256.7C-219.3 -287.2 -179.8 -310.8 -136.6 -329.8C-93.5 -348.9 -46.7 -363.4 0 -378L0 0Z" fill="#131f37"></path><path d="M-315 0C-311.3 -42 -307.6 -83.9 -291 -120.5C-274.5 -157.2 -245.1 -188.4 -213.9 -213.9C-182.7 -239.4 -149.8 -259 -113.8 -274.9C-77.9 -290.7 -39 -302.9 0 -315L0 0Z" fill="#4d345e"></path><path d="M-252 0C-249 -33.6 -246.1 -67.1 -232.8 -96.4C-219.6 -125.7 -196.1 -150.8 -171.1 -171.1C-146.2 -191.5 -119.8 -207.2 -91.1 -219.9C-62.3 -232.6 -31.2 -242.3 0 -252L0 0Z" fill="#96446e"></path><path d="M-189 0C-186.8 -25.2 -184.5 -50.4 -174.6 -72.3C-164.7 -94.3 -147 -113.1 -128.3 -128.3C-109.6 -143.6 -89.9 -155.4 -68.3 -164.9C-46.7 -174.4 -23.4 -181.7 0 -189L0 0Z" fill="#d55e64"></path><path d="M-126 0C-124.5 -16.8 -123 -33.6 -116.4 -48.2C-109.8 -62.9 -98 -75.4 -85.6 -85.6C-73.1 -95.7 -59.9 -103.6 -45.5 -109.9C-31.2 -116.3 -15.6 -121.1 0 -126L0 0Z" fill="#f88f4a"></path><path d="M-63 0C-62.3 -8.4 -61.5 -16.8 -58.2 -24.1C-54.9 -31.4 -49 -37.7 -42.8 -42.8C-36.5 -47.9 -30 -51.8 -22.8 -55C-15.6 -58.1 -7.8 -60.6 0 -63L0 0Z" fill="#fbae3c"></path></g><g transform="translate(0, 0)"><path d="M378 0C373.5 50.7 369 101.4 349.2 144.7C329.4 188 294.4 223.9 258.8 258.8C223.2 293.7 187.1 327.7 143.9 347.4C100.7 367.1 50.3 372.5 0 378L0 0Z" fill="#131f37"></path><path d="M315 0C311.3 42.2 307.5 84.5 291 120.5C274.5 156.6 245.3 186.6 215.7 215.7C186 244.8 155.9 273.1 119.9 289.5C83.9 305.9 41.9 310.5 0 315L0 0Z" fill="#4d345e"></path><path d="M252 0C249 33.8 246 67.6 232.8 96.4C219.6 125.3 196.3 149.2 172.5 172.5C148.8 195.8 124.7 218.5 95.9 231.6C67.1 244.7 33.6 248.4 0 252L0 0Z" fill="#96446e"></path><path d="M189 0C186.8 25.3 184.5 50.7 174.6 72.3C164.7 94 147.2 111.9 129.4 129.4C111.6 146.9 93.6 163.8 71.9 173.7C50.3 183.5 25.2 186.3 0 189L0 0Z" fill="#d55e64"></path><path d="M126 0C124.5 16.9 123 33.8 116.4 48.2C109.8 62.7 98.1 74.6 86.3 86.3C74.4 97.9 62.4 109.2 48 115.8C33.6 122.4 16.8 124.2 0 126L0 0Z" fill="#f88f4a"></path><path d="M63 0C62.3 8.4 61.5 16.9 58.2 24.1C54.9 31.3 49.1 37.3 43.1 43.1C37.2 49 31.2 54.6 24 57.9C16.8 61.2 8.4 62.1 0 63L0 0Z" fill="#fbae3c"></path></g></svg>